<svg xmlns="http://www.w3.org/2000/svg" xmlns:xlink="http://www.w3.org/1999/xlink" width="1080" zoomAndPan="magnify" viewBox="0 0 810 809.999993" height="1080" preserveAspectRatio="xMidYMid meet" version="1.0"><defs><g/></defs><g fill="#f5f5f5" fill-opacity="0.4"><g transform="translate(301.448103, 565.383081)"><g><path d="M 354.859375 -414.828125 L 340.5625 -323.5 L 251.421875 -323.5 L 200.265625 0 L 92.421875 0 L 143.59375 -323.5 L 54.46875 -323.5 L 68.765625 -414.828125 Z M 354.859375 -414.828125 "/></g></g></g><g fill="#f5f5f5" fill-opacity="1"><g transform="translate(277.132547, 541.067525)"><g><path d="M 354.859375 -414.828125 L 340.5625 -323.5 L 251.421875 -323.5 L 200.265625 0 L 92.421875 0 L 143.59375 -323.5 L 54.46875 -323.5 L 68.765625 -414.828125 Z M 354.859375 -414.828125 "/></g></g></g><g fill="#f5f5f5" fill-opacity="0.4"><g transform="translate(582.605958, 565.383081)"><g/></g></g><g fill="#f5f5f5" fill-opacity="1"><g transform="translate(558.290402, 541.067525)"><g/></g></g><g fill="#f5f5f5" fill-opacity="0.4"><g transform="translate(179.371736, 711.240131)"><g><path d="M 218.546875 -434.78125 L 149.921875 0 L 36.90625 0 L 105.515625 -434.78125 Z M 218.546875 -434.78125 "/></g></g></g><g fill="#f5f5f5" fill-opacity="1"><g transform="translate(153.887044, 685.755426)"><g><path d="M 218.546875 -434.78125 L 149.921875 0 L 36.90625 0 L 105.515625 -434.78125 Z M 218.546875 -434.78125 "/></g></g></g><g fill="#f5f5f5" fill-opacity="0.4"><g transform="translate(353.530485, 711.240131)"><g/></g></g><g fill="#f5f5f5" fill-opacity="1"><g transform="translate(328.045792, 685.755426)"><g/></g></g></svg>