<svg xmlns="http://www.w3.org/2000/svg" xmlns:xlink="http://www.w3.org/1999/xlink" width="1080" zoomAndPan="magnify" viewBox="0 0 810 809.999993" height="1080" preserveAspectRatio="xMidYMid meet" version="1.0"><defs><g/></defs><rect x="-81" width="972" fill="#00adb5" y="-80.999999" height="971.999992" fill-opacity="1"/><g fill="#f5f5f5" fill-opacity="0.4"><g transform="translate(263.565693, 610.317041)"><g><path d="M 465.6875 -544.390625 L 446.921875 -424.53125 L 329.953125 -424.53125 L 262.8125 0 L 121.296875 0 L 188.4375 -424.53125 L 71.484375 -424.53125 L 90.25 -544.390625 Z M 465.6875 -544.390625 "/></g></g></g><g fill="#f5f5f5" fill-opacity="1"><g transform="translate(231.655847, 578.407207)"><g><path d="M 465.6875 -544.390625 L 446.921875 -424.53125 L 329.953125 -424.53125 L 262.8125 0 L 121.296875 0 L 188.4375 -424.53125 L 71.484375 -424.53125 L 90.25 -544.390625 Z M 465.6875 -544.390625 "/></g></g></g><g fill="#f5f5f5" fill-opacity="0.4"><g transform="translate(632.535241, 610.317041)"><g/></g></g><g fill="#f5f5f5" fill-opacity="1"><g transform="translate(600.625394, 578.407207)"><g/></g></g><g fill="#f5f5f5" fill-opacity="0.4"><g transform="translate(103.362231, 801.728376)"><g><path d="M 286.796875 -570.5625 L 196.75 0 L 48.4375 0 L 138.484375 -570.5625 Z M 286.796875 -570.5625 "/></g></g></g><g fill="#f5f5f5" fill-opacity="1"><g transform="translate(69.918122, 768.284267)"><g><path d="M 286.796875 -570.5625 L 196.75 0 L 48.4375 0 L 138.484375 -570.5625 Z M 286.796875 -570.5625 "/></g></g></g><g fill="#f5f5f5" fill-opacity="0.4"><g transform="translate(331.914525, 801.728376)"><g/></g></g><g fill="#f5f5f5" fill-opacity="1"><g transform="translate(298.470417, 768.284267)"><g/></g></g></svg>